PathFileType        4      (X/Y/Z)      C:\Users\mrr\Desktop\moco_PFJCF\transformed_exp_static.trc         
DataRate	CameraRate	NumFrames	NumMarkers	Units	OrigDataRate	OrigDataStartFrame	OrigNumFrames
200.0	200.0	4	64	mm	200.0	571	652
Frame#	Time	R.Shoulder			L.Shoulder			R.Clavicle			L.Clavicle			R.Biceps			R.Elbow			R.MElbow			R.Forearm			R.Wrist			L.Biceps			L.Elbow			L.MElbow			L.Forearm			L.Wrist			R.ASIS			L.ASIS			R.PSIS			S2			L.PSIS			R.TH1			R.TH2			R.TH3			R.Knee			R.MKnee			R.SH1			R.SH2			R.SH3			R.SH4			R.Ankle			R.MAnkle			R.Heel			R.MT5			R.Toe			L.TH1			L.TH2			L.TH3			L.TH4			L.Knee			L.MKnee			L.SH1			L.SH2			L.SH3			L.Ankle			L.MAnkle			L.Heel			L.MT5			L.Toe			R_HJC			L_HJC			L.HeelGround			L.ToeGround			L.MT5Ground			L.AnkleJoint			L.AnkleJointGround			L.KneeJoint			R.HeelGround			R.ToeGround			R.MT5Ground			R.AnkleJoint			R.AnkleJointGround			R.KneeJoint			MidASIS			MidPSIS			MidClavicle			
		X1	Y1	Z1	X2	Y2	Z2	X3	Y3	Z3	X4	Y4	Z4	X5	Y5	Z5	X6	Y6	Z6	X7	Y7	Z7	X8	Y8	Z8	X9	Y9	Z9	X10	Y10	Z10	X11	Y11	Z11	X12	Y12	Z12	X13	Y13	Z13	X14	Y14	Z14	X15	Y15	Z15	X16	Y16	Z16	X17	Y17	Z17	X18	Y18	Z18	X19	Y19	Z19	X20	Y20	Z20	X21	Y21	Z21	X22	Y22	Z22	X23	Y23	Z23	X24	Y24	Z24	X25	Y25	Z25	X26	Y26	Z26	X27	Y27	Z27	X28	Y28	Z28	X29	Y29	Z29	X30	Y30	Z30	X31	Y31	Z31	X32	Y32	Z32	X33	Y33	Z33	X34	Y34	Z34	X35	Y35	Z35	X36	Y36	Z36	X37	Y37	Z37	X38	Y38	Z38	X39	Y39	Z39	X40	Y40	Z40	X41	Y41	Z41	X42	Y42	Z42	X43	Y43	Z43	X44	Y44	Z44	X45	Y45	Z45	X46	Y46	Z46	X47	Y47	Z47	X48	Y48	Z48	X49	Y49	Z49	X50	Y50	Z50	X51	Y51	Z51	X52	Y52	Z52	X53	Y53	Z53	X54	Y54	Z54	X55	Y55	Z55	X56	Y56	Z56	X57	Y57	Z57	X58	Y58	Z58	X59	Y59	Z59	X60	Y60	Z60	X61	Y61	Z61	X62	Y62	Z62	X63	Y63	Z63	X64	Y64	Z64	
571	2.85	-265.191	1375.221	-401.579	-276.39799999999997	1387.306	-731.642	-224.52399999999997	1345.897	-548.857	-222.78499999999997	1348.111	-588.031	-203.48699999999997	1195.512	-340.521	-80.65099999999998	1131.894	-295.096	-98.79399999999997	1101.668	-349.735	25.36500000000002	1128.39	-365.523	150.08800000000002	1140.467	-331.385	-181.43299999999994	1239.232	-807.897	-117.43999999999994	1130.671	-842.246	-126.44099999999996	1106.154	-777.215	-25.59199999999995	1097.168	-838.306	113.57700000000006	1153.031	-826.736	-152.18299999999996	960.403	-430.832	-169.23099999999994	959.702	-698.769	-332.41099999999994	954.81	-506.519	-338.3059999999999	944.678	-546.72	-343.00999999999993	962.071	-596.652	-198.24199999999996	733.175	-360.316	-291.262	721.246	-408.419	-294.978	591.504	-403.549	-252.57199999999997	480.818	-372.636	-213.02499999999998	464.846	-489.719	-239.20399999999998	403.337	-352.332	-255.06699999999998	300.486	-314.512	-317.503	401.522	-378.518	-328.472	283.791	-352.412	-270.508	98.712	-316.678	-249.79299999999998	103.499	-397.712	-329.305	54.534	-361.862	-163.95999999999998	41.966	-276.004	-111.67499999999998	64.162	-334.99	-204.20199999999994	784.601	-755.374	-202.26299999999995	652.074	-749.902	-308.28399999999993	794.583	-735.949	-314.07099999999997	658.865	-713.306	-268.02699999999993	497.157	-739.498	-242.44699999999997	474.191	-615.86	-234.21399999999994	403.134	-740.847	-327.49899999999997	414.42	-738.882	-335.85599999999994	299.509	-762.522	-285.83399999999995	103.51	-776.456	-269.9309999999999	102.063	-696.986	-347.2919999999999	50.95	-725.56	-180.26699999999994	42.204	-807.946	-129.41399999999993	64.787	-751.015	-199.55699999999996	856.178	-460.796	-223.95899999999997	867.095	-659.86	-347.2919999999999	0.0	-725.56	-129.41399999999993	0.0	-751.015	-180.26699999999994	0.0	-807.946	-277.88249999999994	102.7865	-736.721	-277.88249999999994	0.0	-736.721	-255.23699999999997	485.674	-677.6790000000001	-329.305	0.0	-361.862	-111.67499999999998	0.0	-334.99	-163.95999999999998	0.0	-276.004	-260.15049999999997	101.1055	-357.195	-260.15049999999997	0.0	-357.195	-232.79849999999996	472.832	-431.1775	-160.70699999999997	960.0525	-564.8005	-337.71049999999997	958.4404999999999	-551.5855	-223.65449999999996	1347.004	-568.444	
572	2.855	-265.493	1375.035	-401.654	-276.53499999999997	1387.366	-731.488	-224.58699999999996	1345.773	-548.554	-222.91699999999997	1347.878	-587.605	-203.65599999999998	1195.011	-340.532	-81.03499999999998	1131.32	-295.202	-98.95799999999997	1101.316	-348.809	25.27500000000002	1128.399	-365.478	149.91100000000003	1140.303	-330.984	-181.60099999999994	1239.219	-807.715	-117.57499999999995	1130.721	-842.223	-126.63599999999995	1105.972	-777.279	-25.74899999999995	1097.136	-838.321	113.46600000000005	1152.828	-826.593	-152.44899999999998	960.928	-431.019	-169.32899999999995	959.693	-698.719	-332.2629999999999	954.333	-505.628	-338.57599999999996	944.396	-546.53	-343.04299999999995	962.0	-596.504	-198.82799999999997	733.475	-360.621	-291.414	720.912	-407.948	-294.986	591.414	-403.363	-252.64299999999997	480.55	-372.583	-212.90399999999997	464.745	-489.585	-239.26299999999998	402.949	-352.275	-254.92999999999998	300.616	-313.979	-317.437	401.349	-378.332	-328.388	283.479	-352.145	-270.089	97.934	-316.359	-249.89099999999996	103.419	-397.508	-329.292	54.276	-361.73	-164.05199999999996	41.679	-275.858	-111.93099999999998	63.776	-334.88	-204.33999999999995	784.685	-755.382	-202.39599999999993	652.165	-750.074	-308.55999999999995	794.382	-735.567	-314.10999999999996	658.804	-713.008	-268.02899999999994	497.173	-739.408	-241.94999999999996	473.899	-616.181	-234.34399999999994	402.862	-741.038	-327.48799999999994	414.146	-738.276	-335.92299999999994	299.298	-762.287	-285.79299999999995	103.229	-776.743	-269.86799999999994	101.825	-697.03	-347.25499999999994	50.924	-725.458	-180.30799999999994	42.12	-807.977	-129.32299999999995	64.778	-750.889	-199.25599999999997	856.43	-460.534	-223.90499999999997	867.041	-659.584	-347.25499999999994	0.0	-725.458	-129.32299999999995	0.0	-750.889	-180.30799999999994	0.0	-807.977	-277.8305	102.527	-736.8865000000001	-277.8305	0.0	-736.8865000000001	-254.98949999999996	485.536	-677.7945	-329.292	0.0	-361.73	-111.93099999999998	0.0	-334.88	-164.05199999999996	0.0	-275.858	-259.99	100.6765	-356.9335	-259.99	0.0	-356.9335	-232.77349999999998	472.64750000000004	-431.084	-160.88899999999998	960.3105	-564.869	-337.65299999999996	958.1665	-551.066	-223.75199999999998	1346.8255	-568.0795	
573	2.86	-265.668	1374.611	-401.503	-276.66399999999993	1387.449	-731.321	-224.65199999999996	1345.69	-548.418	-223.07799999999997	1347.823	-587.365	-203.72099999999998	1194.897	-340.492	-81.04699999999998	1131.317	-294.962	-99.33499999999998	1101.053	-347.962	25.15000000000002	1128.448	-364.974	149.82000000000002	1140.339	-330.771	-181.70099999999994	1239.317	-807.673	-117.69099999999995	1130.901	-842.054	-127.52699999999996	1108.516	-778.832	-25.96199999999995	1097.384	-838.515	113.19800000000005	1152.609	-826.289	-152.43599999999998	961.243	-430.629	-169.43699999999995	959.783	-698.682	-332.2579999999999	953.973	-505.366	-338.56899999999996	943.842	-546.397	-342.99199999999996	961.654	-595.886	-198.71299999999997	733.632	-360.226	-291.829	721.557	-406.917	-294.914	591.311	-403.277	-252.52799999999996	480.215	-372.651	-212.84699999999998	464.985	-489.502	-239.19199999999998	402.933	-352.051	-254.90999999999997	300.653	-313.882	-317.44	401.169	-378.113	-328.442	283.295	-352.161	-270.111	97.724	-316.364	-249.89499999999998	103.49	-397.529	-329.289	54.273	-361.348	-163.96099999999998	41.483	-275.418	-111.77099999999999	63.953	-334.67	-204.49299999999994	784.857	-755.388	-202.42499999999995	652.272	-750.073	-308.77099999999996	794.236	-735.166	-314.15799999999996	658.905	-712.905	-267.96999999999997	497.179	-739.12	-241.89699999999996	473.909	-616.133	-234.15799999999993	402.9	-741.358	-327.53399999999993	413.991	-737.839	-335.87999999999994	299.248	-761.987	-285.98499999999996	102.978	-776.773	-269.8949999999999	101.923	-697.025	-347.28799999999995	50.905	-725.452	-180.24099999999996	42.179	-807.812	-129.38499999999993	64.698	-750.716	-198.86299999999997	856.535	-460.243	-223.64799999999997	866.985	-659.285	-347.28799999999995	0.0	-725.452	-129.38499999999993	0.0	-750.716	-180.24099999999996	0.0	-807.812	-277.93999999999994	102.4505	-736.899	-277.93999999999994	0.0	-736.899	-254.93349999999998	485.544	-677.6265000000001	-329.289	0.0	-361.348	-111.77099999999999	0.0	-334.67	-163.96099999999998	0.0	-275.418	-260.003	100.607	-356.9465	-260.003	0.0	-356.9465	-232.68749999999997	472.6	-431.0765	-160.9365	960.513	-564.6555000000001	-337.62499999999994	957.8135	-550.626	-223.86499999999998	1346.7565	-567.8915	
574	2.865	-265.711	1374.445	-401.329	-276.87999999999994	1387.408	-730.775	-224.77099999999996	1345.607	-548.411	-223.18799999999996	1348.002	-587.089	-203.82999999999998	1194.85	-340.269	-81.20899999999999	1131.296	-294.441	-99.69999999999999	1101.099	-347.23	25.04600000000002	1128.613	-364.807	149.71400000000003	1140.304	-330.459	-181.89299999999994	1239.589	-807.457	-117.82399999999994	1131.116	-841.994	-128.01099999999994	1108.341	-778.927	-26.12599999999995	1097.596	-838.486	113.10100000000006	1152.675	-826.186	-152.56699999999998	961.248	-430.475	-169.50999999999993	959.962	-698.619	-332.29799999999994	953.94	-505.223	-338.51899999999995	943.487	-546.292	-343.1309999999999	961.456	-595.875	-198.79899999999998	733.747	-360.162	-291.864	720.916	-407.142	-294.944	591.353	-403.164	-252.72599999999997	480.057	-372.832	-212.79399999999998	465.303	-489.333	-239.30399999999997	402.821	-352.02	-254.97099999999998	300.684	-313.845	-317.464	401.174	-378.106	-328.412	283.308	-352.071	-270.175	97.365	-316.258	-249.86799999999997	103.736	-397.425	-329.273	54.358	-361.242	-164.01299999999998	41.479	-275.321	-111.77199999999999	64.084	-334.619	-204.60999999999996	785.093	-755.394	-202.49499999999995	652.547	-749.964	-308.92299999999994	794.356	-735.053	-314.19999999999993	658.936	-712.571	-268.02599999999995	497.057	-738.622	-241.66799999999998	473.8	-616.229	-234.66599999999994	402.505	-742.407	-327.53099999999995	414.103	-737.718	-335.96399999999994	299.362	-761.843	-286.2269999999999	102.757	-776.859	-269.99899999999997	101.965	-697.226	-347.28899999999993	50.753	-724.945	-180.22099999999995	42.341	-807.748	-129.39599999999993	64.898	-750.676	-198.77599999999998	856.519	-460.19	-223.55899999999997	867.027	-659.23	-347.28899999999993	0.0	-724.945	-129.39599999999993	0.0	-750.676	-180.22099999999995	0.0	-807.748	-278.11299999999994	102.361	-737.0425	-278.11299999999994	0.0	-737.0425	-254.84699999999998	485.4285	-677.4255	-329.273	0.0	-361.242	-111.77199999999999	0.0	-334.619	-164.01299999999998	0.0	-275.321	-260.0215	100.5505	-356.8415	-260.0215	0.0	-356.8415	-232.75999999999996	472.68	-431.0825	-161.03849999999997	960.605	-564.547	-337.71449999999993	957.6980000000001	-550.549	-223.97949999999994	1346.8045	-567.75	
